<?xml version="1.0" encoding="utf-8"?>
<!-- Generator: Adobe Illustrator 16.0.4, SVG Export Plug-In . SVG Version: 6.00 Build 0)  -->
<!DOCTYPE svg PUBLIC "-//W3C//DTD SVG 1.1//EN" "http://www.w3.org/Graphics/SVG/1.1/DTD/svg11.dtd">
<svg version="1.1" id="图层_1" xmlns="http://www.w3.org/2000/svg" xmlns:xlink="http://www.w3.org/1999/xlink" x="0px" y="0px"
	 width="9px" height="40px" viewBox="0 0 9 40" enable-background="new 0 0 9 40" xml:space="preserve">
<g>
	<g>
		<path fill-rule="evenodd" clip-rule="evenodd" fill="#636161" d="M4.5,16C2.015,16,0,18.015,0,20.5C0,22.986,2.015,25,4.5,25
			S9,22.986,9,20.5C9,18.015,6.985,16,4.5,16z M4.5,9C6.985,9,9,6.985,9,4.5S6.985,0,4.5,0S0,2.015,0,4.5S2.015,9,4.5,9z M4.5,31
			C2.015,31,0,33.016,0,35.5C0,37.986,2.015,40,4.5,40S9,37.986,9,35.5C9,33.016,6.985,31,4.5,31z"/>
	</g>
</g>
</svg>
