<svg enable-background="new 0 0 49 40" height="40" viewBox="0 0 49 40" width="49" xmlns="http://www.w3.org/2000/svg"><g clip-rule="evenodd" fill="#636161" fill-rule="evenodd"><circle cx="38.434" cy="37" r="3"/><circle cx="17.433" cy="37" r="3"/><path d="m46.998 5h-35.742l-.849-3.256c-.127-.983-.957-1.744-1.974-1.744h-6.433c-1.104 0-2 .895-2 2s.896 2 2 2h4.873l6.689 25.668c.29.842.781 1.187 1.481 1.291.001 0 .002 0 .003.001.094.014.19.024.291.03.033.002.062.01.096.01h24c1.043 0 2.072-.441 2.434-1.484l7.045-21.985c.359-1.045-.416-2.531-1.914-2.531zm-8.525 22h-21.484l-4.69-18h31.944z"/></g></svg>