<?xml version="1.0" encoding="utf-8"?>
<!-- Generator: Adobe Illustrator 16.0.4, SVG Export Plug-In . SVG Version: 6.00 Build 0)  -->
<!DOCTYPE svg PUBLIC "-//W3C//DTD SVG 1.1//EN" "http://www.w3.org/Graphics/SVG/1.1/DTD/svg11.dtd">
<svg version="1.1" id="图层_1" xmlns="http://www.w3.org/2000/svg" xmlns:xlink="http://www.w3.org/1999/xlink" x="0px" y="0px"
	 width="40px" height="40px" viewBox="0 0 40 40" enable-background="new 0 0 40 40" xml:space="preserve">
<g>
	<g>
		<path fill-rule="evenodd" clip-rule="evenodd" fill="#636161" d="M39.212,35.729l-7.701-7.701
			c2.215-2.932,3.545-6.57,3.545-10.528c0-9.665-7.835-17.5-17.5-17.5s-17.5,7.835-17.5,17.5c0,9.664,7.835,17.5,17.5,17.5
			c3.902,0,7.494-1.293,10.404-3.452l7.717,7.717c0.863,0.863,2.446,1.09,3.535,0C40.234,38.242,40.262,36.779,39.212,35.729z
			 M17.556,31c-7.456,0-13.5-6.045-13.5-13.5c0-7.456,6.044-13.5,13.5-13.5c7.456,0,13.5,6.044,13.5,13.5
			C31.056,24.955,25.012,31,17.556,31z"/>
	</g>
</g>
</svg>
